<?xml version="1.0" encoding="UTF-8" standalone="no"?><!DOCTYPE svg PUBLIC "-//W3C//DTD SVG 1.1//EN" "http://www.w3.org/Graphics/SVG/1.1/DTD/svg11.dtd"><!-- Generated by graphviz version 2.40.1 (20161225.0304)
 --><!-- Title: Tree Pages: 1 --><svg xmlns="http://www.w3.org/2000/svg" xmlns:xlink="http://www.w3.org/1999/xlink" width="250pt" height="178pt" viewBox="0.00 0.00 250.10 177.60">
<g id="graph0" class="graph" transform="scale(1 1) rotate(0) translate(4 173.6)">
<title>Tree</title>
<polygon fill="#ffffff" stroke="transparent" points="-4,4 -4,-173.6 246.103,-173.6 246.103,4 -4,4"/>
<!-- 0 -->
<g id="node1" class="node">
<title>0</title>
<path fill="#f5cdb1" stroke="#000000" d="M172.7201,-169.7003C172.7201,-169.7003 69.3829,-169.7003 69.3829,-169.7003 63.3829,-169.7003 57.3829,-163.7003 57.3829,-157.7003 57.3829,-157.7003 57.3829,-106.2997 57.3829,-106.2997 57.3829,-100.2997 63.3829,-94.2997 69.3829,-94.2997 69.3829,-94.2997 172.7201,-94.2997 172.7201,-94.2997 178.7201,-94.2997 184.7201,-100.2997 184.7201,-106.2997 184.7201,-106.2997 184.7201,-157.7003 184.7201,-157.7003 184.7201,-163.7003 178.7201,-169.7003 172.7201,-169.7003"/>
<text text-anchor="middle" x="121.0515" y="-153" font-family="Helvetica,sans-Serif" font-size="14.00" fill="#000000">alive &lt;= 0.5</text>
<text text-anchor="middle" x="121.0515" y="-136.2" font-family="Helvetica,sans-Serif" font-size="14.00" fill="#000000">entropy = 0.955</text>
<text text-anchor="middle" x="121.0515" y="-119.4" font-family="Helvetica,sans-Serif" font-size="14.00" fill="#000000">samples = 712</text>
<text text-anchor="middle" x="121.0515" y="-102.6" font-family="Helvetica,sans-Serif" font-size="14.00" fill="#000000">value = [444, 268]</text>
</g>
<!-- 1 -->
<g id="node2" class="node">
<title>1</title>
<path fill="#e58139" stroke="#000000" d="M100.1545,-58.6014C100.1545,-58.6014 11.9485,-58.6014 11.9485,-58.6014 5.9485,-58.6014 -.0515,-52.6014 -.0515,-46.6014 -.0515,-46.6014 -.0515,-11.7986 -.0515,-11.7986 -.0515,-5.7986 5.9485,.2014 11.9485,.2014 11.9485,.2014 100.1545,.2014 100.1545,.2014 106.1545,.2014 112.1545,-5.7986 112.1545,-11.7986 112.1545,-11.7986 112.1545,-46.6014 112.1545,-46.6014 112.1545,-52.6014 106.1545,-58.6014 100.1545,-58.6014"/>
<text text-anchor="middle" x="56.0515" y="-41.8" font-family="Helvetica,sans-Serif" font-size="14.00" fill="#000000">entropy = 0.0</text>
<text text-anchor="middle" x="56.0515" y="-25" font-family="Helvetica,sans-Serif" font-size="14.00" fill="#000000">samples = 444</text>
<text text-anchor="middle" x="56.0515" y="-8.2" font-family="Helvetica,sans-Serif" font-size="14.00" fill="#000000">value = [444, 0]</text>
</g>
<!-- 0&#45;&gt;1 -->
<g id="edge1" class="edge">
<title>0-&gt;1</title>
<path fill="none" stroke="#000000" d="M97.217,-94.3048C91.6191,-85.4515 85.6512,-76.013 80.0463,-67.1487"/>
<polygon fill="#000000" stroke="#000000" points="82.8921,-65.1003 74.5895,-58.5186 76.9756,-68.8413 82.8921,-65.1003"/>
<text text-anchor="middle" x="69.0955" y="-78.7075" font-family="Helvetica,sans-Serif" font-size="14.00" fill="#000000">True</text>
</g>
<!-- 2 -->
<g id="node3" class="node">
<title>2</title>
<path fill="#399de5" stroke="#000000" d="M230.1545,-58.6014C230.1545,-58.6014 141.9485,-58.6014 141.9485,-58.6014 135.9485,-58.6014 129.9485,-52.6014 129.9485,-46.6014 129.9485,-46.6014 129.9485,-11.7986 129.9485,-11.7986 129.9485,-5.7986 135.9485,.2014 141.9485,.2014 141.9485,.2014 230.1545,.2014 230.1545,.2014 236.1545,.2014 242.1545,-5.7986 242.1545,-11.7986 242.1545,-11.7986 242.1545,-46.6014 242.1545,-46.6014 242.1545,-52.6014 236.1545,-58.6014 230.1545,-58.6014"/>
<text text-anchor="middle" x="186.0515" y="-41.8" font-family="Helvetica,sans-Serif" font-size="14.00" fill="#000000">entropy = 0.0</text>
<text text-anchor="middle" x="186.0515" y="-25" font-family="Helvetica,sans-Serif" font-size="14.00" fill="#000000">samples = 268</text>
<text text-anchor="middle" x="186.0515" y="-8.2" font-family="Helvetica,sans-Serif" font-size="14.00" fill="#000000">value = [0, 268]</text>
</g>
<!-- 0&#45;&gt;2 -->
<g id="edge2" class="edge">
<title>0-&gt;2</title>
<path fill="none" stroke="#000000" d="M144.886,-94.3048C150.4839,-85.4515 156.4518,-76.013 162.0567,-67.1487"/>
<polygon fill="#000000" stroke="#000000" points="165.1274,-68.8413 167.5135,-58.5186 159.2109,-65.1003 165.1274,-68.8413"/>
<text text-anchor="middle" x="173.0075" y="-78.7075" font-family="Helvetica,sans-Serif" font-size="14.00" fill="#000000">False</text>
</g>
</g>
</svg>